<?xml version="1.0" encoding="UTF-8" standalone="no"?>
<svg
   version="1.1"
   id="svg2"
   viewBox="0 0 175.39198 175.39199"
   height="49.499516mm"
   width="49.499516mm"
   sodipodi:docname="Serbia_road_sign_II-22.svg"
   inkscape:version="1.4 (e7c3feb100, 2024-10-09)"
   xmlns:inkscape="http://www.inkscape.org/namespaces/inkscape"
   xmlns:sodipodi="http://sodipodi.sourceforge.net/DTD/sodipodi-0.dtd"
   xmlns="http://www.w3.org/2000/svg"
   xmlns:svg="http://www.w3.org/2000/svg"
   xmlns:rdf="http://www.w3.org/1999/02/22-rdf-syntax-ns#"
   xmlns:cc="http://creativecommons.org/ns#"
   xmlns:dc="http://purl.org/dc/elements/1.1/">
  <sodipodi:namedview
     id="namedview1"
     pagecolor="#ffffff"
     bordercolor="#000000"
     borderopacity="0.25"
     inkscape:showpageshadow="2"
     inkscape:pageopacity="0.0"
     inkscape:pagecheckerboard="0"
     inkscape:deskcolor="#d1d1d1"
     inkscape:document-units="mm"
     inkscape:zoom="4.2761362"
     inkscape:cx="79.978744"
     inkscape:cy="106.17061"
     inkscape:window-width="1920"
     inkscape:window-height="1008"
     inkscape:window-x="0"
     inkscape:window-y="0"
     inkscape:window-maximized="1"
     inkscape:current-layer="svg2" />
  <defs
     id="defs4">
    <foreignObject
       id="foreignObject2819"
       requiredExtensions="http://ns.adobe.com/AdobeIllustrator/10.0/"
       x="0"
       y="0"
       width="1"
       height="1" />
    <foreignObject
       id="foreignObject2819"
       requiredExtensions="http://ns.adobe.com/AdobeIllustrator/10.0/"
       x="0"
       y="0"
       width="1"
       height="1" />
  </defs>
  <metadata
     id="metadata7">
    <rdf:RDF>
      <cc:Work
         rdf:about="">
        <dc:format>image/svg+xml</dc:format>
        <dc:type
           rdf:resource="http://purl.org/dc/dcmitype/StillImage" />
        <dc:title />
      </cc:Work>
    </rdf:RDF>
  </metadata>
  <path
     id="path26322"
     style="fill:#ffffff;fill-opacity:1;stroke:#343132;stroke-width:1.77164;stroke-linecap:butt;stroke-linejoin:miter;stroke-miterlimit:2.61313;stroke-dasharray:none;stroke-opacity:1"
     d="m 87.69596,0.88586 c 47.9359,0 86.81018,38.874339 86.81018,86.810177 0,47.935903 -38.87428,86.810173 -86.81018,86.810173 -47.935838,0 -86.810177,-38.8744 -86.810177,-86.810173 0,-47.935587 38.874276,-86.810177 86.810177,-86.810177 z" />
  <path
     id="path26314"
     style="fill:#eb3d00;fill-opacity:1;fill-rule:evenodd;stroke:none"
     d="M 87.70386 5.2075197 C 42.28086 5.2075197 5.2331545 42.255226 5.2331545 87.678226 C 5.2331545 133.10173 42.28086 170.1471 87.70386 170.1471 C 133.12696 170.1471 170.17457 133.10173 170.17457 87.678226 C 170.17457 42.255226 133.12696 5.2075197 87.70386 5.2075197 z M 87.696536 26.358033 A 61.338753 61.338684 0 0 1 149.03504 87.696536 A 61.338753 61.338684 0 0 1 87.696536 149.03504 A 61.338753 61.338684 0 0 1 26.358033 87.696536 A 61.338753 61.338684 0 0 1 87.696536 26.358033 z " />
</svg>
