<?xml version="1.0" encoding="UTF-8" standalone="no"?>
<svg
   version="1.1"
   id="svg2"
   viewBox="0 0 2125.9842 2125.9843"
   height="600mm"
   width="600mm"
   sodipodi:docname="Serbia_road_sign_II-33.svg"
   xml:space="preserve"
   inkscape:version="1.4 (e7c3feb100, 2024-10-09)"
   xmlns:inkscape="http://www.inkscape.org/namespaces/inkscape"
   xmlns:sodipodi="http://sodipodi.sourceforge.net/DTD/sodipodi-0.dtd"
   xmlns="http://www.w3.org/2000/svg"
   xmlns:svg="http://www.w3.org/2000/svg"
   xmlns:rdf="http://www.w3.org/1999/02/22-rdf-syntax-ns#"
   xmlns:cc="http://creativecommons.org/ns#"
   xmlns:dc="http://purl.org/dc/elements/1.1/"><sodipodi:namedview
     id="namedview1"
     pagecolor="#ffffff"
     bordercolor="#000000"
     borderopacity="0.25"
     inkscape:showpageshadow="2"
     inkscape:pageopacity="0.0"
     inkscape:pagecheckerboard="0"
     inkscape:deskcolor="#d1d1d1"
     inkscape:document-units="mm"
     inkscape:zoom="0.125"
     inkscape:cx="-264"
     inkscape:cy="1812"
     inkscape:window-width="1920"
     inkscape:window-height="1008"
     inkscape:window-x="0"
     inkscape:window-y="0"
     inkscape:window-maximized="1"
     inkscape:current-layer="svg2" /><defs
     id="defs4"><foreignObject
       id="foreignObject2819"
       requiredExtensions="http://ns.adobe.com/AdobeIllustrator/10.0/"
       x="0"
       y="0"
       width="1"
       height="1" /><foreignObject
       id="foreignObject2819"
       requiredExtensions="http://ns.adobe.com/AdobeIllustrator/10.0/"
       x="0"
       y="0"
       width="1"
       height="1" /></defs><metadata
     id="metadata7"><rdf:RDF><cc:Work
         rdf:about=""><dc:format>image/svg+xml</dc:format><dc:type
           rdf:resource="http://purl.org/dc/dcmitype/StillImage" /><dc:title /></cc:Work></rdf:RDF></metadata><path
     id="path26322"
     style="fill:#ffffff;fill-opacity:1;stroke:#343132;stroke-width:21.4746;stroke-linecap:butt;stroke-linejoin:miter;stroke-miterlimit:2.61313;stroke-dasharray:none;stroke-opacity:1"
     d="m 1062.992,10.737056 c 581.0469,0 1052.2549,471.208724 1052.2549,1052.254844 0,581.047 -471.208,1052.2549 -1052.2549,1052.2549 C 481.94583,2115.2468 10.737103,1644.0373 10.737103,1062.9919 10.737103,481.94883 481.94507,10.737056 1062.992,10.737056 Z" /><path
     id="path18138"
     style="fill:#343132;fill-opacity:1;fill-rule:evenodd;stroke:none;stroke-width:25.0123"
     d="m 726.3814,581.10236 v 818.50144 h -88.34164 l 211.60564,145.2745 213.1052,-145.2745 H 974.4125 V 581.10236"
     sodipodi:nodetypes="ccccccc" /><path
     id="path18134"
     style="fill:#eb3d00;fill-opacity:1;fill-rule:evenodd;stroke:none;stroke-width:17.3142"
     d="m 1425.7209,1544.8783 10e-5,-800.78382 h 62.227 l -123.5764,-162.99212 -124.455,162.99212 h 62.227 l -1e-4,800.78382"
     sodipodi:nodetypes="ccccccc" /><path
     id="path26314-7"
     style="fill:#eb3d00;fill-opacity:1;fill-rule:evenodd;stroke:none;stroke-width:12.1214"
     d="m 63.336614,1062.9915 c 0,550.5873 449.072866,999.6547 999.666586,999.6547 550.6,0 999.6444,-449.0674 999.6444,-999.6547 0,-550.58854 -449.0444,-999.654854 -999.6444,-999.654854 -550.59372,0 -999.666586,449.066314 -999.666586,999.654854 z m 256.375416,0.085 a 743.51537,743.50731 0 0 1 743.51317,-743.50407 743.51537,743.50731 0 0 1 743.5132,743.50447 743.51537,743.50731 0 0 1 -743.5132,743.5042 743.51537,743.50731 0 0 1 -743.51317,-743.5042 z" /></svg>
