<?xml version="1.0" encoding="UTF-8" standalone="no"?>
<svg
   version="1.1"
   id="svg2"
   viewBox="0 0 175.39363 175.39364"
   height="49.499981mm"
   width="49.499981mm"
   sodipodi:docname="Serbia_road_sign_III-27.1-40.svg"
   inkscape:version="1.4 (e7c3feb100, 2024-10-09)"
   xmlns:inkscape="http://www.inkscape.org/namespaces/inkscape"
   xmlns:sodipodi="http://sodipodi.sourceforge.net/DTD/sodipodi-0.dtd"
   xmlns="http://www.w3.org/2000/svg"
   xmlns:svg="http://www.w3.org/2000/svg"
   xmlns:rdf="http://www.w3.org/1999/02/22-rdf-syntax-ns#"
   xmlns:cc="http://creativecommons.org/ns#"
   xmlns:dc="http://purl.org/dc/elements/1.1/">
  <sodipodi:namedview
     id="namedview1"
     pagecolor="#ffffff"
     bordercolor="#000000"
     borderopacity="0.25"
     inkscape:showpageshadow="2"
     inkscape:pageopacity="0.0"
     inkscape:pagecheckerboard="0"
     inkscape:deskcolor="#d1d1d1"
     inkscape:document-units="mm"
     inkscape:zoom="2.8284271"
     inkscape:cx="73.892659"
     inkscape:cy="73.892659"
     inkscape:window-width="1920"
     inkscape:window-height="1008"
     inkscape:window-x="0"
     inkscape:window-y="0"
     inkscape:window-maximized="1"
     inkscape:current-layer="svg2" />
  <defs
     id="defs4">
    <foreignObject
       id="foreignObject2819"
       requiredExtensions="http://ns.adobe.com/AdobeIllustrator/10.0/"
       x="0"
       y="0"
       width="1"
       height="1" />
    <foreignObject
       id="foreignObject2819"
       requiredExtensions="http://ns.adobe.com/AdobeIllustrator/10.0/"
       x="0"
       y="0"
       width="1"
       height="1" />
    <foreignObject
       id="foreignObject2819"
       requiredExtensions="http://ns.adobe.com/AdobeIllustrator/10.0/"
       x="0"
       y="0"
       width="1"
       height="1" />
  </defs>
  <metadata
     id="metadata7">
    <rdf:RDF>
      <cc:Work
         rdf:about="">
        <dc:format>image/svg+xml</dc:format>
        <dc:type
           rdf:resource="http://purl.org/dc/dcmitype/StillImage" />
        <dc:title />
      </cc:Work>
    </rdf:RDF>
  </metadata>
  <path
     id="path7749"
     style="fill:#ffffff;stroke:#343132;stroke-width:1.77163;stroke-linecap:butt;stroke-linejoin:miter;stroke-miterlimit:2.61313;stroke-dasharray:none;stroke-opacity:1;fill-opacity:1"
     d="m 174.5078,87.69681 c 0,47.8137 -38.9973,86.811 -86.8109,86.811 -47.8138,0 -86.8111,-38.9973 -86.8111,-86.811 0,-47.8138 38.9973,-86.811 86.8111,-86.811 47.8136,0 86.8109,38.9972 86.8109,86.811 z" />
  <g
     id="g2">
    <g
       id="g1"
       style="mix-blend-mode:normal">
      <path
         id="path7751"
         style="mix-blend-mode:normal;display:inline;fill:#1060a9;fill-opacity:1;fill-rule:evenodd;stroke:none"
         d="m 170.1678,87.69681 c 0,45.423 -37.0472,82.4701 -82.4701,82.4701 -45.4231,0 -82.4701,-37.0471 -82.4701,-82.4701 0,-45.4231 37.047,-82.4701 82.4701,-82.4701 45.4229,0 82.4701,37.047 82.4701,82.4701" />
      <path
         id="path19308"
         style="display:inline;mix-blend-mode:normal;fill:#ffffff;fill-opacity:1;fill-rule:evenodd;stroke:none;stroke-width:2.03333"
         d="m 135.33658,67.92263 -0.122,-2.074 -0.244,-1.952 c -5.36596,-22.687936 -37.582088,-21.311369 -40.503987,1.952 l -0.122,2.074 v 41.114 c 0.900766,24.77211 34.680527,27.96037 40.625987,4.026 l 0.244,-1.952 0.122,-2.074" />
      <path
         id="path19312"
         style="fill:#ffffff;fill-opacity:1;fill-rule:evenodd;stroke:none;stroke-width:2.03333"
         d="m 65.43058,129.04468 v -12.688 H 35.418589 v -10.37 L 65.43058,48.524673 h 11.589996 v 57.462007 h 3.415999 v 10.37 h -3.415999 v 12.688" />
      <path
         id="path19316"
         style="fill:#1060a9;fill-opacity:1;fill-rule:evenodd;stroke:none;stroke-width:2.03333"
         d="M 65.43058,105.98665 V 73.534647 L 48.472585,105.98665" />
      <path
         id="path19320"
         style="fill:#1060a9;fill-opacity:1;fill-rule:evenodd;stroke:none;stroke-width:2.03333"
         d="m 123.86858,66.94665 v -0.854 l -0.122,-0.976 c -2.23463,-10.191068 -16.93359,-9.560734 -17.93399,0.976 l -0.122,0.854 v 43.066 c 0.17283,11.07557 15.74816,12.50704 18.05599,1.83 l 0.122,-0.854 v -0.976" />
    </g>
  </g>
</svg>
