<?xml version="1.0" encoding="UTF-8" standalone="no"?>
<svg
   version="1.1"
   id="svg2"
   viewBox="0 0 175.39363 175.39364"
   height="49.499981mm"
   width="49.499981mm"
   sodipodi:docname="Serbia_road_sign_II-40.svg"
   inkscape:version="1.4 (e7c3feb100, 2024-10-09)"
   xmlns:inkscape="http://www.inkscape.org/namespaces/inkscape"
   xmlns:sodipodi="http://sodipodi.sourceforge.net/DTD/sodipodi-0.dtd"
   xmlns="http://www.w3.org/2000/svg"
   xmlns:svg="http://www.w3.org/2000/svg"
   xmlns:rdf="http://www.w3.org/1999/02/22-rdf-syntax-ns#"
   xmlns:cc="http://creativecommons.org/ns#"
   xmlns:dc="http://purl.org/dc/elements/1.1/">
  <sodipodi:namedview
     id="namedview1"
     pagecolor="#ffffff"
     bordercolor="#000000"
     borderopacity="0.25"
     inkscape:showpageshadow="2"
     inkscape:pageopacity="0.0"
     inkscape:pagecheckerboard="0"
     inkscape:deskcolor="#d1d1d1"
     inkscape:document-units="mm"
     inkscape:zoom="1.5118282"
     inkscape:cx="-41.00995"
     inkscape:cy="60.853475"
     inkscape:window-width="1920"
     inkscape:window-height="1008"
     inkscape:window-x="0"
     inkscape:window-y="0"
     inkscape:window-maximized="1"
     inkscape:current-layer="svg2" />
  <defs
     id="defs4">
    <foreignObject
       id="foreignObject2819"
       requiredExtensions="http://ns.adobe.com/AdobeIllustrator/10.0/"
       x="0"
       y="0"
       width="1"
       height="1" />
    <foreignObject
       id="foreignObject2819"
       requiredExtensions="http://ns.adobe.com/AdobeIllustrator/10.0/"
       x="0"
       y="0"
       width="1"
       height="1" />
    <foreignObject
       id="foreignObject2819"
       requiredExtensions="http://ns.adobe.com/AdobeIllustrator/10.0/"
       x="0"
       y="0"
       width="1"
       height="1" />
  </defs>
  <metadata
     id="metadata7">
    <rdf:RDF>
      <cc:Work
         rdf:about="">
        <dc:format>image/svg+xml</dc:format>
        <dc:type
           rdf:resource="http://purl.org/dc/dcmitype/StillImage" />
        <dc:title />
      </cc:Work>
    </rdf:RDF>
  </metadata>
  <g
     transform="translate(-79.077885,-484.60479)"
     id="layer1">
    <g
       id="layer1-8"
       transform="translate(1104.1107,-63.423881)">
      <g
         id="layer1-1"
         transform="translate(-186.65001,-159.83592)" />
      <g
         id="layer1-7"
         transform="translate(1865.215,19.665482)">
        <g
           style="fill:#ffffff;fill-opacity:0"
           id="g7767"
           transform="matrix(0.988012,0,0,-0.988012,-3823.61,2213.67)">
          <path
             id="path7769"
             style="fill:#ffffff;fill-opacity:0;stroke:#ffffff;stroke-width:3.60479999;stroke-linecap:butt;stroke-linejoin:miter;stroke-miterlimit:2.61313009;stroke-dasharray:none;stroke-opacity:1"
             d="m 1033.45,1702.33 c -22.7931,0 -44.2225,-8.8764 -60.3403,-24.9942 -16.1178,-16.1178 -24.9942,-37.5469 -24.9942,-60.3403 0,-22.7936 8.8764,-44.2224 24.9942,-60.3405 16.1178,-16.1175 37.5472,-24.9939 60.3403,-24.9939 22.7937,0 44.223,8.8764 60.3405,24.9939 16.1175,16.1181 24.9939,37.5469 24.9939,60.3405 0,22.7934 -8.8764,44.2225 -24.9939,60.3403 -16.1175,16.1178 -37.5468,24.9942 -60.3405,24.9942 z" />
        </g>
        <path
           id="path7749"
           style="fill:none;stroke:#000000;stroke-width:1.77163005;stroke-linecap:butt;stroke-linejoin:miter;stroke-miterlimit:2.61313009;stroke-dasharray:none;stroke-opacity:1"
           d="m -2715.74,616.06 c 0,47.8137 -38.9973,86.811 -86.8109,86.811 -47.8138,0 -86.8111,-38.9973 -86.8111,-86.811 0,-47.8138 38.9973,-86.811 86.8111,-86.811 47.8136,0 86.8109,38.9972 86.8109,86.811 z" />
        <path
           id="path7751"
           style="fill:#1060a9;fill-opacity:1;fill-rule:evenodd;stroke:none"
           d="m -2720.08,616.06 c 0,45.423 -37.0472,82.4701 -82.4701,82.4701 -45.4231,0 -82.4701,-37.0471 -82.4701,-82.4701 0,-45.4231 37.047,-82.4701 82.4701,-82.4701 45.4229,0 82.4701,37.047 82.4701,82.4701" />
      </g>
      <g
         transform="matrix(1.9493499,0,0,-1.9493503,-910.1935,626.85807)"
         id="g19950">
        <path
           id="path19952"
           style="fill:#ffffff;fill-opacity:1;fill-rule:evenodd;stroke:none"
           d="m 0,0 -3.24,5.22 1.8,3.66 4.08,0 0,1.92 -9.78,1.86 -0.36,-0.9 3.96,-2.88 0.48,0 -1.38,-2.76 -20.64,0 1.32,2.76 -3.6,2.22 1.02,2.04 4.62,0 0.72,1.38 -6.18,0 -1.98,-4.02 3.6,-2.16 -3.84,-7.98 c -5.34,2.22 -11.58,-0.42 -13.8,-5.82 -2.22,-5.4 0.36,-11.58 5.82,-13.86 5.4,-2.22 11.58,0.42 13.8,5.82 2.04,4.98 0.12,10.56 -4.5,13.2 l 0.6,1.32 11.58,-8.46 c -1.14,-1.98 -0.42,-4.56 1.62,-5.7 1.14,-0.66 2.28,-0.78 3.54,-0.3 l 0.9,-1.68 -0.24,0 0,-1.44 2.88,0 0,1.44 -1.02,0 -1.38,2.34 c 0.9,0.66 1.44,1.56 1.56,2.58 l 2.22,0 c 0.42,-5.82 5.46,-10.2 11.28,-9.84 5.88,0.36 10.32,5.4 9.9,11.28 C 14.94,-2.94 9.9,1.44 4.08,1.08 2.52,1.02 1.32,0.66 0,0" />
      </g>
      <g
         style="fill:#0000cc;fill-opacity:1"
         transform="matrix(1.9493499,0,0,-1.9493503,-921.5387,643.93438)"
         id="g19954">
        <path
           id="path19956"
           style="fill:#1060a9;fill-opacity:1;fill-rule:evenodd;stroke:none"
           d="M 0,0 -2.22,0 C -2.34,0.9 -2.7,1.56 -3.3,2.22 L 1.86,12.48 4.62,8.04 C 1.86,6.12 0.24,3.3 0,0" />
      </g>
      <g
         style="fill:#0000cc;fill-opacity:1"
         transform="matrix(1.9493499,0,0,-1.9493503,-936.7436,637.6185)"
         id="g19958">
        <path
           id="path19960"
           style="fill:#1060a9;fill-opacity:1;fill-rule:evenodd;stroke:none"
           d="m 0,0 -0.9,1.68 0.18,0 0,1.44 -2.82,0 0,-1.44 1.08,0 1.2,-2.34 c 0,0 -0.06,-0.06 -0.12,-0.12 l -11.82,8.64 1.08,2.28 20.64,0 L 3.3,-0.12 C 2.28,0.36 1.2,0.42 0,0" />
      </g>
      <g
         transform="matrix(1.9493499,0,0,-1.9493503,-971.2471,609.54782)"
         id="g19962">
        <path
           id="path19964"
           style="fill:#ffffff;fill-opacity:1;fill-rule:evenodd;stroke:none"
           d="m 0,0 0,-5.64 c 1.62,0 2.88,1.26 2.88,2.88 C 2.88,-1.26 1.62,0 0,0" />
      </g>
      <g
         style="fill:#0000cc;fill-opacity:1"
         transform="matrix(1.9493499,0,0,-1.9493503,-968.674,628.72943)"
         id="g19966">
        <path
           id="path19968"
           style="fill:#1060a9;fill-opacity:1;fill-rule:evenodd;stroke:none"
           d="m 0,0 -3.06,-6.42 c -1.14,0.18 -2.22,-0.66 -2.46,-1.74 -0.12,-1.2 0.6,-2.28 1.8,-2.4 1.14,-0.24 2.28,0.54 2.4,1.68 0.18,0.66 -0.06,1.32 -0.48,1.74 l 3.06,6.54 c 4.38,-2.58 5.88,-8.22 3.24,-12.6 -2.58,-4.38 -8.22,-5.82 -12.6,-3.24 -4.38,2.64 -5.76,8.22 -3.18,12.6 C -8.94,0.06 -4.26,1.68 0,0" />
      </g>
      <g
         style="fill:#0000cc;fill-opacity:1"
         transform="matrix(1.9493499,0,0,-1.9493503,-918.7316,646.74144)"
         id="g19970">
        <path
           id="path19972"
           style="fill:#1060a9;fill-opacity:1;fill-rule:evenodd;stroke:none"
           d="m 0,0 7.14,0 c 0.36,-1.14 1.62,-1.62 2.7,-1.26 1.14,0.36 1.74,1.62 1.32,2.7 C 10.8,2.34 9.96,2.94 9,2.82 L 5.16,8.94 C 9.72,11.22 15.24,9.3 17.46,4.74 19.62,0.18 17.7,-5.28 13.2,-7.5 8.64,-9.78 3.12,-7.86 0.9,-3.3 0.42,-2.22 0.12,-1.2 0,0" />
      </g>
      <g
         style="fill:#0000cc;fill-opacity:1"
         transform="matrix(1.9493499,0,0,-1.9493503,-904.8133,643.93438)"
         id="g19974">
        <path
           id="path19976"
           style="fill:#1060a9;fill-opacity:1;fill-rule:evenodd;stroke:none"
           d="m 0,0 -7.14,0 c 0.24,2.88 1.56,5.16 3.9,6.84 l 3.78,-6 C 0.3,0.54 0.18,0.3 0,0" />
      </g>
    </g>
  </g>
</svg>
