<?xml version="1.0" encoding="UTF-8" standalone="no"?>
<svg
   version="1.1"
   id="svg2"
   viewBox="0 0 2125.9843 2125.9844"
   height="600mm"
   width="600mm"
   sodipodi:docname="Serbia_road_sign_III-26.svg"
   xml:space="preserve"
   inkscape:version="1.4 (e7c3feb100, 2024-10-09)"
   xmlns:inkscape="http://www.inkscape.org/namespaces/inkscape"
   xmlns:sodipodi="http://sodipodi.sourceforge.net/DTD/sodipodi-0.dtd"
   xmlns="http://www.w3.org/2000/svg"
   xmlns:svg="http://www.w3.org/2000/svg"
   xmlns:rdf="http://www.w3.org/1999/02/22-rdf-syntax-ns#"
   xmlns:cc="http://creativecommons.org/ns#"
   xmlns:dc="http://purl.org/dc/elements/1.1/"><sodipodi:namedview
     id="namedview1"
     pagecolor="#ffffff"
     bordercolor="#000000"
     borderopacity="0.25"
     inkscape:showpageshadow="2"
     inkscape:pageopacity="0.0"
     inkscape:pagecheckerboard="0"
     inkscape:deskcolor="#d1d1d1"
     inkscape:document-units="mm"
     inkscape:zoom="0.1767767"
     inkscape:cx="1581.0908"
     inkscape:cy="1210.5668"
     inkscape:window-width="1920"
     inkscape:window-height="1012"
     inkscape:window-x="0"
     inkscape:window-y="0"
     inkscape:window-maximized="1"
     inkscape:current-layer="svg2" /><defs
     id="defs4"><foreignObject
       id="foreignObject2819"
       requiredExtensions="http://ns.adobe.com/AdobeIllustrator/10.0/"
       x="0"
       y="0"
       width="1"
       height="1" /><foreignObject
       id="foreignObject2819"
       requiredExtensions="http://ns.adobe.com/AdobeIllustrator/10.0/"
       x="0"
       y="0"
       width="1"
       height="1" /><foreignObject
       id="foreignObject2819"
       requiredExtensions="http://ns.adobe.com/AdobeIllustrator/10.0/"
       x="0"
       y="0"
       width="1"
       height="1" /><foreignObject
       id="foreignObject2819"
       requiredExtensions="http://ns.adobe.com/AdobeIllustrator/10.0/"
       x="0"
       y="0"
       width="1"
       height="1" /><foreignObject
       id="foreignObject2819"
       requiredExtensions="http://ns.adobe.com/AdobeIllustrator/10.0/"
       x="0"
       y="0"
       width="1"
       height="1" /><foreignObject
       id="foreignObject2819"
       requiredExtensions="http://ns.adobe.com/AdobeIllustrator/10.0/"
       x="0"
       y="0"
       width="1"
       height="1" /><foreignObject
       id="foreignObject2819"
       requiredExtensions="http://ns.adobe.com/AdobeIllustrator/10.0/"
       x="0"
       y="0"
       width="1"
       height="1" /><foreignObject
       id="foreignObject2819"
       requiredExtensions="http://ns.adobe.com/AdobeIllustrator/10.0/"
       x="0"
       y="0"
       width="1"
       height="1" /></defs><metadata
     id="metadata7"><rdf:RDF><cc:Work
         rdf:about=""><dc:format>image/svg+xml</dc:format><dc:type
           rdf:resource="http://purl.org/dc/dcmitype/StillImage" /><dc:title /></cc:Work></rdf:RDF></metadata><path
     id="path7907"
     style="fill:#ffffff;fill-opacity:1;stroke:#24211d;stroke-width:12.2607;stroke-linecap:butt;stroke-linejoin:miter;stroke-miterlimit:4;stroke-dasharray:none;stroke-opacity:1"
     d="M 1062.9897,6.1303501 C 780.70279,6.1303501 515.29901,116.06381 315.68141,315.68141 116.06382,515.299 6.1303501,780.69907 6.1303501,1062.9934 c 0,282.2906 109.9334699,547.6919 309.5510599,747.3095 199.6176,199.6176 465.02138,309.551 747.30829,309.551 282.2943,0 547.6981,-109.9334 747.3095,-309.551 199.6175,-199.6176 309.5548,-465.0189 309.5548,-747.3095 0,-282.29433 -109.9373,-547.6944 -309.5548,-747.31199 C 1610.6878,116.06381 1345.284,6.1303501 1062.9897,6.1303501 Z" /><g
     id="g1"><path
       d="M 341.79234,1830.2254 1831.478,339.93687"
       style="fill:#24211d;stroke:#24211d;stroke-width:15.054;stroke-linecap:butt;stroke-linejoin:miter;stroke-miterlimit:2.61313;stroke-dasharray:none;stroke-opacity:1;fill-opacity:1"
       id="path7901-4" /><path
       d="M 360.96705,1853.5976 1849.8836,364.07849"
       style="fill:#24211d;stroke:#24211d;stroke-width:15.0462;stroke-linecap:butt;stroke-linejoin:miter;stroke-miterlimit:2.61313;stroke-dasharray:none;stroke-opacity:1;fill-opacity:1"
       id="path7901-4-0" /><path
       d="M 382.87442,1874.2366 1869.0632,387.4462"
       style="fill:none;stroke:#24211d;stroke-width:15.0187;stroke-linecap:butt;stroke-linejoin:miter;stroke-miterlimit:2.61313;stroke-dasharray:none;stroke-opacity:1;fill-opacity:1"
       id="path7901-4-0-9" /><path
       d="M 258.67533,1743.2649 1746.6034,254.73455"
       style="fill:#24211d;stroke:#24211d;stroke-width:15.0363;stroke-linecap:butt;stroke-linejoin:miter;stroke-miterlimit:2.61313;stroke-dasharray:none;stroke-opacity:1;fill-opacity:1"
       id="path7901-4-9" /><path
       d="M 277.88489,1766.6519 1768.5364,275.39706"
       style="fill:#24211d;stroke:#24211d;stroke-width:15.0638;stroke-linecap:butt;stroke-linejoin:miter;stroke-miterlimit:2.61313;stroke-dasharray:none;stroke-opacity:1;fill-opacity:1"
       id="path7901-4-0-4" /><path
       d="M 299.81777,1787.3147 1787.7384,298.79199"
       style="fill:#24211d;stroke:#24211d;stroke-width:15.0363;stroke-linecap:butt;stroke-linejoin:miter;stroke-miterlimit:2.61313;stroke-dasharray:none;stroke-opacity:1;fill-opacity:1"
       id="path7901-4-0-9-6" /><path
       d="M 318.40716,1811.0651 1811.519,317.34892"
       style="fill:#24211d;stroke:#24211d;stroke-width:15.0885;stroke-linecap:butt;stroke-linejoin:miter;stroke-miterlimit:2.61313;stroke-dasharray:none;stroke-opacity:1;fill-opacity:1"
       id="path7901" /></g><path
     id="path15997"
     style="fill:#24211d;fill-opacity:1;fill-rule:evenodd;stroke:none;stroke-width:25.9772"
     d="M 448.20879,797.24413 379.62945,962.46 346.89864,993.63291 v 218.20889 h 32.73081 v 116.8984 h 101.31223 v -116.8984 h 397.45364 v 116.8984 h 99.7523 v -116.8984 h 32.73078 V 996.75061 L 978.14762,962.46 911.12613,797.24413 Z m 18.70424,32.73077 H 890.86204 L 943.85694,962.46 H 412.36028 Z" /><path
     id="path16001"
     style="fill:#24211d;fill-opacity:1;fill-rule:evenodd;stroke:none;stroke-width:25.9772"
     d="m 1213.2993,797.24413 -65.4612,165.21552 -32.731,31.17286 v 218.20829 h 32.731 v 116.8983 h 98.1942 v -116.8983 h 399.0105 v 116.8983 h 99.7521 v -116.8983 h 34.2908 V 996.75021 l -34.2908,-34.29056 -65.4613,-165.21552 z m 21.8219,32.7307 h 423.9484 l 52.9945,132.48482 h -531.4954 z" /></svg>
