<?xml version="1.0" encoding="UTF-8" standalone="no"?>
<svg
   version="1.1"
   id="svg2"
   viewBox="0 0 2125.9841 2125.9844"
   height="600mm"
   width="600mm"
   xml:space="preserve"
   sodipodi:docname="Serbia_road_sign_III-1.svg"
   inkscape:version="1.2.2 (732a01da63, 2022-12-09)"
   xmlns:inkscape="http://www.inkscape.org/namespaces/inkscape"
   xmlns:sodipodi="http://sodipodi.sourceforge.net/DTD/sodipodi-0.dtd"
   xmlns="http://www.w3.org/2000/svg"
   xmlns:svg="http://www.w3.org/2000/svg"><defs
   id="defs27210" /><sodipodi:namedview
   id="namedview27208"
   pagecolor="#ffffff"
   bordercolor="#000000"
   borderopacity="0.25"
   inkscape:showpageshadow="2"
   inkscape:pageopacity="0.0"
   inkscape:pagecheckerboard="0"
   inkscape:deskcolor="#d1d1d1"
   inkscape:document-units="mm"
   showgrid="false"
   inkscape:zoom="0.18300347"
   inkscape:cx="871.56816"
   inkscape:cy="598.3493"
   inkscape:window-width="1920"
   inkscape:window-height="991"
   inkscape:window-x="-9"
   inkscape:window-y="-9"
   inkscape:window-maximized="1"
   inkscape:current-layer="svg2" />
  <path
   id="path1"
   style="fill:#ffffff;fill-opacity:1;fill-rule:nonzero;stroke:#343132;stroke-width:17.29488175;stroke-linecap:butt;stroke-linejoin:miter;stroke-miterlimit:2.61313;stroke-dasharray:none;stroke-opacity:1"
   d="m 2024.4938,2117.3366 c 51.0655,0 92.8428,-41.7096 92.8428,-92.6843 V 101.33243 c 0,-50.975045 -41.7773,-92.6848298 -92.8428,-92.6848298 H 101.49596 c -51.066804,0 -92.8483598,41.7097848 -92.8483598,92.6848298 V 2024.6523 c 0,50.9747 41.7815558,92.6843 92.8483598,92.6843 z" /><path
   id="path2"
   style="fill:#1060a9;fill-opacity:1;fill-rule:nonzero;stroke:none;stroke-width:13.8279"
   d="m 2012.8682,2059.4073 c 25.5293,0 46.4249,-20.8536 46.4249,-46.3409 V 112.91557 c 0,-25.490081 -20.8956,-46.343178 -46.4249,-46.343178 H 113.08004 c -25.534792,0 -46.424877,20.853097 -46.424877,46.343178 V 2013.0664 c 0,25.4873 20.890085,46.3409 46.424877,46.3409 z" /><g
   id="g27532"
   transform="matrix(13.815755,0,0,13.815755,-15429.6,-5448.4109)"
   style="fill:#ffffff"><path
     id="path26852"
     style="fill:#ffffff;fill-opacity:1;fill-rule:evenodd;stroke:none;stroke-width:1.85395"
     d="m 1203.1534,450.04034 10.3461,1.36341 c 0.7623,0.11362 1.5247,-0.45447 1.6336,-1.36341 0,-0.22724 0,-0.68171 -0.3267,-0.90894 l -21.3457,-33.63087 -21.4545,33.63087 c -0.5445,0.6817 -0.3267,1.47703 0.2178,2.04512 0.4357,0.22723 0.7624,0.34085 1.0891,0.22723 l 10.455,-1.36341 v 75.44222 h 19.3853" /></g></svg>
